<svg width="48" height="48" viewBox="0 0 48 48" fill="none" xmlns="http://www.w3.org/2000/svg">
<g clip-path="url(#clip0_24_4)">
<path d="M18 9C18 11.3869 17.0518 13.6761 15.364 15.364C13.6761 17.0518 11.3869 18 9 18C6.61305 18 4.32387 17.0518 2.63604 15.364C0.948211 13.6761 0 11.3869 0 9C0 6.61305 0.948211 4.32387 2.63604 2.63604C4.32387 0.948211 6.61305 0 9 0C11.3869 0 13.6761 0.948211 15.364 2.63604C17.0518 4.32387 18 6.61305 18 9ZM3 9C3 10.5913 3.63214 12.1174 4.75736 13.2426C5.88258 14.3679 7.4087 15 9 15C10.5913 15 12.1174 14.3679 13.2426 13.2426C14.3679 12.1174 15 10.5913 15 9C15 7.4087 14.3679 5.88258 13.2426 4.75736C12.1174 3.63214 10.5913 3 9 3C7.4087 3 5.88258 3.63214 4.75736 4.75736C3.63214 5.88258 3 7.4087 3 9Z" fill="url(#paint0_linear_24_4)"/>
<path d="M27 18H28.5C29.9553 17.9998 31.361 18.5286 32.4554 19.4878C33.5499 20.447 34.2584 21.7713 34.449 23.214L43.779 19.068C44.2357 18.8645 44.736 18.7784 45.2344 18.8175C45.7328 18.8565 46.2136 19.0195 46.633 19.2917C47.0524 19.5638 47.3972 19.9365 47.6359 20.3758C47.8746 20.8151 47.9998 21.307 48 21.807V44.193C47.9996 44.6926 47.8744 45.1841 47.6358 45.6231C47.3972 46.062 47.0528 46.4344 46.6338 46.7064C46.2148 46.9785 45.7346 47.1417 45.2365 47.181C44.7385 47.2204 44.2385 47.1348 43.782 46.932L34.449 42.786C34.2584 44.2287 33.5499 45.553 32.4554 46.5122C31.361 47.4714 29.9553 48.0002 28.5 48H6C4.4087 48 2.88258 47.3679 1.75736 46.2426C0.632141 45.1174 0 43.5913 0 42V24C0 22.4087 0.632141 20.8826 1.75736 19.7574C2.88258 18.6321 4.4087 18 6 18H27ZM45 44.19V21.81L34.5 26.475V39.525L45 44.19ZM3 24V42C3 42.7956 3.31607 43.5587 3.87868 44.1213C4.44129 44.6839 5.20435 45 6 45H28.5C29.2956 45 30.0587 44.6839 30.6213 44.1213C31.1839 43.5587 31.5 42.7956 31.5 42V24C31.5 23.2044 31.1839 22.4413 30.6213 21.8787C30.0587 21.3161 29.2956 21 28.5 21H6C5.20435 21 4.44129 21.3161 3.87868 21.8787C3.31607 22.4413 3 23.2044 3 24Z" fill="url(#paint1_linear_24_4)"/>
<path d="M27 18C29.3869 18 31.6761 17.0518 33.364 15.364C35.0518 13.6761 36 11.3869 36 9C36 6.61305 35.0518 4.32387 33.364 2.63604C31.6761 0.948211 29.3869 0 27 0C24.6131 0 22.3239 0.948211 20.636 2.63604C18.9482 4.32387 18 6.61305 18 9C18 11.3869 18.9482 13.6761 20.636 15.364C22.3239 17.0518 24.6131 18 27 18ZM21 9C21 7.4087 21.6321 5.88258 22.7574 4.75736C23.8826 3.63214 25.4087 3 27 3C28.5913 3 30.1174 3.63214 31.2426 4.75736C32.3679 5.88258 33 7.4087 33 9C33 10.5913 32.3679 12.1174 31.2426 13.2426C30.1174 14.3679 28.5913 15 27 15C25.4087 15 23.8826 14.3679 22.7574 13.2426C21.6321 12.1174 21 10.5913 21 9Z" fill="url(#paint2_linear_24_4)"/>
</g>
<defs>
<linearGradient id="paint0_linear_24_4" x1="9" y1="0" x2="9" y2="18" gradientUnits="userSpaceOnUse">
<stop stop-color="#0E6275"/>
<stop offset="1" stop-color="#0E6275"/>
</linearGradient>
<linearGradient id="paint1_linear_24_4" x1="24" y1="18" x2="24" y2="48" gradientUnits="userSpaceOnUse">
<stop stop-color="#0E6275"/>
<stop offset="1" stop-color="#0E6275"/>
</linearGradient>
<linearGradient id="paint2_linear_24_4" x1="27" y1="0" x2="27" y2="18" gradientUnits="userSpaceOnUse">
<stop stop-color="#0E6275"/>
<stop offset="1" stop-color="#0E6275"/>
</linearGradient>
<clipPath id="clip0_24_4">
<rect width="48" height="48" fill="white"/>
</clipPath>
</defs>
</svg>
