<svg width="38" height="38" viewBox="0 0 38 38" fill="none" xmlns="http://www.w3.org/2000/svg">
<g clip-path="url(#clip0_17_7)">
<path d="M32.3024 5.52438C30.5606 3.76568 28.486 2.37144 26.1996 1.42298C23.9133 0.474518 21.461 -0.00916945 18.9858 0.000131635C8.61413 0.000131635 0.1615 8.45038 0.152 18.8244C0.152 22.147 1.02125 25.3794 2.66238 28.2413L0 38.0001L9.9845 35.3829C12.7454 36.8892 15.8407 37.6773 18.9858 37.6748H18.9953C29.3693 37.6748 37.8195 29.2245 37.829 18.841C37.8311 16.3664 37.3437 13.9158 36.3948 11.6304C35.4459 9.34492 34.0566 7.26976 32.3024 5.52438ZM18.9858 34.4875C16.1813 34.4853 13.4288 33.7307 11.0153 32.3025L10.4453 31.9605L4.522 33.5138L6.10375 27.7354L5.73325 27.1393C4.16529 24.6463 3.33604 21.7599 3.34163 18.8149C3.34163 10.2031 10.3645 3.17788 18.9953 3.17788C21.0514 3.17419 23.0879 3.57753 24.9874 4.36465C26.8869 5.15176 28.6119 6.30709 30.0628 7.76401C31.5184 9.21548 32.6724 10.9407 33.4583 12.8402C34.2442 14.7396 34.6464 16.7759 34.6418 18.8315C34.6323 27.4741 27.6094 34.4875 18.9858 34.4875ZM27.5714 22.7693C27.1035 22.5341 24.7926 21.3965 24.358 21.235C23.9258 21.0806 23.6099 20.9999 23.3011 21.4701C22.9853 21.938 22.0828 23.0044 21.812 23.3108C21.5413 23.6266 21.261 23.6623 20.7908 23.4295C20.3229 23.192 18.8053 22.698 17.0098 21.0901C15.6085 19.8433 14.6704 18.2995 14.3901 17.8316C14.1194 17.3614 14.364 17.1096 14.5991 16.8745C14.8058 16.6655 15.067 16.3235 15.3021 16.0528C15.5396 15.782 15.618 15.5825 15.7724 15.269C15.9268 14.9508 15.8531 14.68 15.7368 14.4449C15.618 14.2098 14.6799 11.8894 14.2833 10.9536C13.9033 10.0298 13.5161 10.158 13.2264 10.1461C12.9556 10.1295 12.6398 10.1295 12.3239 10.1295C12.0854 10.1356 11.8507 10.1908 11.6345 10.2918C11.4183 10.3927 11.2253 10.5372 11.0675 10.7161C10.6353 11.1864 9.42638 12.324 9.42638 14.6444C9.42638 16.9648 11.1126 19.1949 11.3501 19.5108C11.5829 19.8266 14.6609 24.5743 19.3848 26.6168C20.501 27.1036 21.3798 27.391 22.0661 27.6095C23.1943 27.9705 24.2131 27.9159 25.0254 27.7995C25.9279 27.6618 27.8065 26.6595 28.2031 25.5599C28.5926 24.4579 28.5926 23.5174 28.4739 23.3203C28.3575 23.1208 28.0416 23.0044 27.5714 22.7693Z" fill="#A3A3A3"/>
</g>
<defs>
<clipPath id="clip0_17_7">
<rect width="38" height="38" fill="white"/>
</clipPath>
</defs>
</svg>
